<?xml version="1.0" encoding="UTF-8"?>
<svg version="1.1" xmlns="http://www.w3.org/2000/svg" width="270" height="267">
<path d="M0 0 C89.1 0 178.2 0 270 0 C270 88.11 270 176.22 270 267 C180.9 267 91.8 267 0 267 C0 178.89 0 90.78 0 0 Z " fill="#FDFDFD" transform="translate(0,0)"/>
<path d="M0 0 C1.07202762 3.21608287 1.00425535 5.32255231 0.875 8.6875 C0.83612505 16.75405169 2.64536239 22.33963457 8.1640625 28.2890625 C20.45614233 39.74423476 36.64001215 45.80693341 52.0546875 51.7109375 C89.66182033 66.12597925 89.66182033 66.12597925 98.16015625 83.3515625 C100.69256379 91.33748024 99.8722949 101.25818364 96.33203125 108.7890625 C92.63108187 114.93198728 87.61076945 119.62086287 82 124 C81.34 123.67 80.68 123.34 80 123 C80.48210937 122.48050781 80.96421875 121.96101563 81.4609375 121.42578125 C85.88573795 116.54044035 88.7123229 113.2219835 89.3125 106.5 C88.9609195 102.56229836 88.67259191 100.91555481 86 98 C76.18127168 92.4181202 63.61354271 94.80735563 52.98461914 96.27905273 C44.32138046 97.43450232 35.22317018 98.45511352 27 95 C25.9693759 94.03159205 24.96262951 93.03602337 24 92 C24.589021 91.97494385 25.17804199 91.9498877 25.78491211 91.92407227 C28.50258671 91.80667639 31.22003342 91.68461285 33.9375 91.5625 C34.86369141 91.52318359 35.78988281 91.48386719 36.74414062 91.44335938 C41.00816358 91.24886008 45.22837495 91.0061211 49.46484375 90.4765625 C54.8477821 89.83703514 60.20960899 89.81602565 65.625 89.8125 C66.62273437 89.80025391 67.62046875 89.78800781 68.6484375 89.77539062 C74.1716873 89.7644318 78.78415516 90.15180848 84 92 C76.6125164 87.95447327 70.09731484 87.8784794 61.88671875 88.0078125 C59.89648951 88.02533243 57.9062548 88.04224036 55.91601562 88.05859375 C52.80233416 88.08948783 49.68893046 88.12497868 46.57543945 88.17138672 C43.55416521 88.21399719 40.53321306 88.23724182 37.51171875 88.2578125 C36.13314949 88.28574387 36.13314949 88.28574387 34.72673035 88.3142395 C27.16701792 88.34388391 19.60619012 87.23996927 13.9375 81.8125 C13.36902344 81.28269531 12.80054687 80.75289063 12.21484375 80.20703125 C11.81394531 79.80871094 11.41304687 79.41039062 11 79 C11.99 78.505 11.99 78.505 13 78 C13.845625 78.28875 14.69125 78.5775 15.5625 78.875 C22.13508878 81.02602906 28.89227373 81.07518857 35.75390625 81.2109375 C36.46263382 81.22530853 37.17136139 81.23967957 37.90156555 81.25448608 C40.85464127 81.31153705 43.80756292 81.36594579 46.76098633 81.40136719 C59.95405261 81.57226565 72.84660869 82.41656322 85 88 C70.25559544 79.0101689 52.88906301 78.95498567 36.1015625 77.86645508 C11.64200095 76.23647943 11.64200095 76.23647943 3.9375 68.0625 C1.93378256 64.89533372 1.26503429 62.7104801 1 59 C1.391875 59.38671875 1.78375 59.7734375 2.1875 60.171875 C13.97580113 70.43582684 34.550144 70.6673695 49.45117188 72.85180664 C60.82881804 74.53259528 71.3533497 76.53821448 82 81 C65.92619258 73.10922181 47.91963443 70.06058788 30.51025391 66.48925781 C18.58251268 64.02936389 6.30121371 61.33922944 -1.59765625 51.27734375 C-5.18121712 45.45780061 -7.74755639 38.91489664 -7 32 C-4.73298217 34.26701783 -4.35251944 35.73522042 -3.375 38.75 C-0.75368598 45.39895344 3.1555202 48.13812167 9.46459961 51.19360352 C18.12696617 54.92691818 26.94788438 57.31125159 36.0625 59.625 C37.55294798 60.00958982 39.04318373 60.39500305 40.53320312 60.78125 C43.38734121 61.52057564 46.24241515 62.25610588 49.09814453 62.98925781 C54.07988316 64.27324409 59.04280167 65.62452283 64 67 C57.33042734 64.56015633 50.71434171 62.17106347 43.875 60.25 C28.59494573 55.61174607 8.87353327 48.45787605 0.0859375 34.37109375 C-2.71332071 28.25904435 -3.3402098 22.6060173 -3.3125 16 C-3.32861328 15.23171875 -3.34472656 14.4634375 -3.36132812 13.671875 C-3.36583067 8.37688511 -2.38414436 4.73054502 0 0 Z " fill="#080808" transform="translate(70,112)"/>
<path d="M0 0 C0.33 0 0.66 0 1 0 C1.49529116 5.94349391 0.48350936 10.09621685 -3 15 C-5.51808903 17.53764701 -8.19639935 19.78663107 -11 22 C-11.495 22.495 -11.495 22.495 -12 23 C-11.38511719 22.59007813 -10.77023438 22.18015625 -10.13671875 21.7578125 C-6.7578125 19.50520833 -3.37890625 17.25260417 0 15 C-0.58536753 18.66060821 -2.083239 20.54535164 -4.5625 23.25 C-5.20316406 23.95640625 -5.84382813 24.6628125 -6.50390625 25.390625 C-6.99761719 25.92171875 -7.49132812 26.4528125 -8 27 C-6.35 26.34 -4.7 25.68 -3 25 C-5.91024866 31.49209317 -10.95911625 34.7836465 -17.4375 37.375 C-18.95326064 37.9307036 -20.4724736 38.47750606 -22 39 C-17.545 38.505 -17.545 38.505 -13 38 C-18.366539 44.83014054 -27.49129439 46.36507223 -35.65234375 47.41015625 C-38.36144513 48.09081234 -39.37773727 48.74248229 -41 51 C-41.56459314 56.74003023 -40.9427618 59.9384497 -38 65 C-37.67 65.99 -37.34 66.98 -37 68 C-35.16715557 69.12516085 -35.16715557 69.12516085 -33 70 C-29 72 -25 74 -21 76 C-27.71054113 76.72940664 -32.32725612 74.49835313 -38 71 C-43.05444842 66.84412018 -46.92715996 61.21852012 -49 55 C-49.38560595 50.20958756 -49.64145286 45.63926842 -47.875 41.125 C-44.14794808 36.90100783 -39.90193831 33.73931846 -35 31 C-35.55429688 31.30035156 -36.10859375 31.60070312 -36.6796875 31.91015625 C-37.40414062 32.29042969 -38.12859375 32.67070313 -38.875 33.0625 C-39.59429687 33.44535156 -40.31359375 33.82820313 -41.0546875 34.22265625 C-41.69664062 34.47917969 -42.33859375 34.73570313 -43 35 C-43.66 34.67 -44.32 34.34 -45 34 C-38.60747791 26.39199836 -30.64737678 23.01568297 -21.69140625 19.12890625 C-12.36366159 15.01655493 -5.16354399 11.60217876 -0.5625 2 C-0.2840625 1.01 -0.2840625 1.01 0 0 Z " fill="#0D0D0D" transform="translate(185,88)"/>
<path d="M0 0 C4.50808989 4.15932648 6.6996368 9.06874472 7.32421875 15.1640625 C7.64053357 35.94351308 -2.42008018 52.85888502 -16 68 C-21.13065155 73.02849256 -25.126242 75.28379374 -32.375 75.25 C-33.47585937 75.25515625 -34.57671875 75.2603125 -35.7109375 75.265625 C-39.09832226 74.99205949 -41.83444028 74.20501669 -45 73 C-45 72.67 -45 72.34 -45 72 C-44.17757812 71.98582031 -43.35515625 71.97164063 -42.5078125 71.95703125 C-28.39108742 71.35389173 -20.81293186 65.60771845 -11 56 C-11.80630859 56.61681641 -11.80630859 56.61681641 -12.62890625 57.24609375 C-15.35155082 59.26004336 -18.13007184 61.16845956 -20.9375 63.0625 C-21.95714844 63.75472656 -22.97679687 64.44695312 -24.02734375 65.16015625 C-30.31418211 69.05122178 -35.05348719 69.25838115 -42.3125 69.125 C-43.70952148 69.11146484 -43.70952148 69.11146484 -45.13476562 69.09765625 C-47.4234436 69.07418263 -49.71158672 69.04134729 -52 69 C-52 68.67 -52 68.34 -52 68 C-51.12859375 67.85304688 -50.2571875 67.70609375 -49.359375 67.5546875 C-37.94087929 65.40445129 -28.82904016 61.66049073 -20 54 C-21.0621875 54.54269531 -22.124375 55.08539063 -23.21875 55.64453125 C-24.64572284 56.36740565 -26.07281246 57.09004957 -27.5 57.8125 C-28.19609375 58.16892578 -28.8921875 58.52535156 -29.609375 58.89257812 C-31.72574082 59.96055903 -33.85492908 60.99097643 -36 62 C-36.64259766 62.30510498 -37.28519531 62.61020996 -37.94726562 62.92456055 C-43.47470509 65.29136308 -48.54921725 65.35616317 -54.5 65.1875 C-55.4178125 65.17396484 -56.335625 65.16042969 -57.28125 65.14648438 C-59.52146803 65.11148097 -61.76040594 65.06238869 -64 65 C-63.67 64.34 -63.34 63.68 -63 63 C-60.66467375 62.33102634 -58.36907781 61.7697509 -56 61.25 C-36.72135624 56.68211645 -15.45157686 49.83729894 -3.05859375 33.4296875 C2.76364754 23.73045491 2.64973617 10.83982979 0 0 Z " fill="#101010" transform="translate(169,191)"/>
<path d="M0 0 C1.07070532 2.10265207 2.09138715 4.20741802 3.04296875 6.3671875 C6.30636051 13.51769095 9.54174833 18.03493039 16.8359375 21.25 C23.91259716 23.81684884 30.62067911 25.45977363 38 23 C38 22.34 38 21.68 38 21 C37.21625 20.731875 36.4325 20.46375 35.625 20.1875 C33 19 33 19 31 16 C34.41926046 16.22030856 37.83422127 16.48139355 41.25 16.75 C42.21808594 16.811875 43.18617188 16.87375 44.18359375 16.9375 C51.35883644 17.53131319 51.35883644 17.53131319 54.671875 19.953125 C56 22 56 22 56 24 C54.02 23.67 52.04 23.34 50 23 C50 23.66 50 24.32 50 25 C50.84304687 24.98839844 51.68609375 24.97679687 52.5546875 24.96484375 C53.65039062 24.95582031 54.74609375 24.94679687 55.875 24.9375 C57.51082031 24.92009766 57.51082031 24.92009766 59.1796875 24.90234375 C62 25 62 25 64 26 C64 26.66 64 27.32 64 28 C59.38 28.66 54.76 29.32 50 30 C50.14052735 33.93775576 50.28718393 37.87511629 50.4375 41.8125 C50.47681641 42.93205078 50.51613281 44.05160156 50.55664062 45.20507812 C50.59853516 46.27822266 50.64042969 47.35136719 50.68359375 48.45703125 C50.73858032 49.9416687 50.73858032 49.9416687 50.79467773 51.45629883 C50.90790331 54.1218351 50.90790331 54.1218351 52 57 C53.43636327 70.98908735 51.80396301 83.58745535 43 95 C42 93 42 93 42.70703125 90.86328125 C43.07183594 90.02152344 43.43664062 89.17976563 43.8125 88.3125 C44.18503906 87.40757812 44.55757812 86.50265625 44.94140625 85.5703125 C45.46541016 84.29800781 45.46541016 84.29800781 46 83 C49.62075552 73.40499787 48.89571652 63.27372845 45.3203125 53.78515625 C38.14411619 38.64720367 23.95620829 32.36165958 9 27 C10.32 26.67 11.64 26.34 13 26 C12.29875 25.38125 11.5975 24.7625 10.875 24.125 C5.45643938 18.72187687 0.16762479 10.44205696 -0.125 2.6875 C-0.08375 1.800625 -0.0425 0.91375 0 0 Z " fill="#090909" transform="translate(134,141)"/>
<path d="M0 0 C4.48349962 2.50978512 8.03743218 5.15130304 10 10 C10.81023613 15.09291279 9.22465286 18.19274109 6.41015625 22.29296875 C4.39302978 24.73475343 3.14924792 25.49898329 0 26 C-4.624143 26.04219109 -7.9964251 25.64057972 -11.9375 23.125 C-14.94468128 20.02669202 -16.3010486 17.96928614 -16.375 13.6875 C-16.26288832 9.09092123 -15.0880045 6.5053024 -12 3 C-8.06959386 -0.18681579 -4.99118456 -0.76136714 0 0 Z " fill="#111111" transform="translate(192,26)"/>
<path d="M0 0 C1.98 0 3.96 0 6 0 C8.31 4.62 10.62 9.24 13 14 C14.21693876 11.56612247 14.31959896 9.58161154 14.5625 6.875 C14.64628906 5.96492188 14.73007813 5.05484375 14.81640625 4.1171875 C14.90728516 3.06917969 14.90728516 3.06917969 15 2 C16.98 2 18.96 2 21 2 C20.69241283 5.25048455 20.37807182 8.5002817 20.0625 11.75 C19.97548828 12.67039062 19.88847656 13.59078125 19.79882812 14.5390625 C19.71181641 15.42851562 19.62480469 16.31796875 19.53515625 17.234375 C19.456604 18.05131836 19.37805176 18.86826172 19.29711914 19.70996094 C19.01670988 21.87120901 18.57555495 23.90017313 18 26 C16.35 26 14.7 26 13 26 C10.36 21.05 7.72 16.1 5 11 C4.34 15.29 3.68 19.58 3 24 C1.02 24 -0.96 24 -3 24 C-2.68860949 21.31236733 -2.37591843 18.62489631 -2.0625 15.9375 C-1.97548828 15.18533203 -1.88847656 14.43316406 -1.79882812 13.65820312 C-1.26536361 9.09411781 -0.67013702 4.54606466 0 0 Z " fill="#121212" transform="translate(146,16)"/>
<path d="M0 0 C0.92185554 3.01420958 1.23354974 4.48014987 -0.07983398 7.40356445 C-0.62969971 8.215271 -1.17956543 9.02697754 -1.74609375 9.86328125 C-2.33583984 10.74951172 -2.92558594 11.63574219 -3.53320312 12.54882812 C-4.47583008 13.9168457 -4.47583008 13.9168457 -5.4375 15.3125 C-6.06205078 16.24384766 -6.68660156 17.17519531 -7.33007812 18.13476562 C-8.87366796 20.43247569 -10.43044723 22.71998138 -12 25 C-14.02734375 23.1875 -14.02734375 23.1875 -16 21 C-15.70740515 18.99363529 -15.37366113 16.99285937 -15 15 C-16.3516367 12.75244247 -16.3516367 12.75244247 -18 11 C-18 10.34 -18 9.68 -18 9 C-19.98 9 -21.96 9 -24 9 C-24.66 7.68 -25.32 6.36 -26 5 C-6.34710744 -2.11570248 -6.34710744 -2.11570248 0 0 Z " fill="#0C0C0C" transform="translate(249,73)"/>
<path d="M0 0 C0.33 0.99 0.66 1.98 1 3 C0.01 3.99 -0.98 4.98 -2 6 C-1.37351563 6.13277344 -0.74703125 6.26554687 -0.1015625 6.40234375 C0.71570313 6.57894531 1.53296875 6.75554687 2.375 6.9375 C3.59316406 7.19853516 3.59316406 7.19853516 4.8359375 7.46484375 C7 8 7 8 9 9 C7.14088656 13.88578603 4.75499484 18.43296832 2.33984375 23.0625 C1.10755509 25.76419408 0.43518104 28.07730264 0 31 C-2.33364352 28.07096942 -4.04960836 25.11431797 -5.6875 21.75 C-6.34298828 20.41195312 -6.34298828 20.41195312 -7.01171875 19.046875 C-7.33785156 18.37140625 -7.66398437 17.6959375 -8 17 C-13.1693489 17.40556131 -13.1693489 17.40556131 -18 19 C-17.34 17.68 -16.68 16.36 -16 15 C-15.34 15 -14.68 15 -14 15 C-14.0825 13.989375 -14.165 12.97875 -14.25 11.9375 C-14.015625 10.01953125 -14.015625 10.01953125 -13 8 C-9.22346202 5.22217076 -5.16075341 3.14085277 -1 1 C-0.67 0.67 -0.34 0.34 0 0 Z " fill="#0D0D0D" transform="translate(130,109)"/>
<path d="M0 0 C2.27475041 2.27475041 2.53850483 3.42727159 3.2890625 6.5 C3.50820312 7.386875 3.72734375 8.27375 3.953125 9.1875 C4.17484375 10.115625 4.3965625 11.04375 4.625 12 C4.96917969 13.3921875 4.96917969 13.3921875 5.3203125 14.8125 C7 21.69122024 7 21.69122024 7 24 C5.35 24 3.7 24 2 24 C0.74335022 21.09399739 0 19.20395416 0 16 C-2.97 16.33 -5.94 16.66 -9 17 C-8.67 20.3 -8.34 23.6 -8 27 C-9.65 27.33 -11.3 27.66 -13 28 C-13.84137043 25.1062867 -14.6733036 22.21040603 -15.5 19.3125 C-15.85771484 18.08756836 -15.85771484 18.08756836 -16.22265625 16.83789062 C-17.36464868 12.80828875 -18.34500623 9.23495153 -18 5 C-16.35 4.67 -14.7 4.34 -13 4 C-12.34 6.31 -11.68 8.62 -11 11 C-8.03 11 -5.06 11 -2 11 C-2.66 7.7 -3.32 4.4 -4 1 C-2.68 0.67 -1.36 0.34 0 0 Z " fill="#0C0C0C" transform="translate(112,17)"/>
<path d="M0 0 C5.53429024 0.40515832 9.9774894 2.65939946 14.875 5.0625 C15.65875 5.43955078 16.4425 5.81660156 17.25 6.20507812 C19.16995053 7.12993234 21.085439 8.06403978 23 9 C23 10.32 23 11.64 23 13 C22.2575 13.144375 21.515 13.28875 20.75 13.4375 C19.8425 13.623125 18.935 13.80875 18 14 C17.29875 14.12375 16.5975 14.2475 15.875 14.375 C13.49136479 15.16954507 12.46283791 15.95202692 11 18 C11 18.825 11 19.65 11 20.5 C11 23 11 23 9.625 24.8125 C8 26 8 26 6 26 C4.62781327 22.59029681 3.28046394 19.17130714 1.9375 15.75 C1.54755859 14.78191406 1.15761719 13.81382813 0.75585938 12.81640625 C0.39169922 11.88183594 0.02753906 10.94726562 -0.34765625 9.984375 C-0.68804932 9.12553711 -1.02844238 8.26669922 -1.37915039 7.38183594 C-2.05672399 4.78238329 -1.94524266 3.48598473 -1 1 C-0.67 0.67 -0.34 0.34 0 0 Z " fill="#0A0A0A" transform="translate(44,51)"/>
<path d="M0 0 C1.4375 2.0625 1.4375 2.0625 2 4 C-1.33333333 4.66666667 -4.66666667 5.33333333 -8 6 C-8.33 6.99 -8.66 7.98 -9 9 C-8.02417969 8.96519531 -7.04835938 8.93039063 -6.04296875 8.89453125 C-4.77066406 8.86746094 -3.49835938 8.84039062 -2.1875 8.8125 C-0.92292969 8.77769531 0.34164062 8.74289063 1.64453125 8.70703125 C5 9 5 9 6.91796875 10.33203125 C8.67444322 13.03966519 8.50317006 14.85518711 8 18 C5.93583376 20.99637034 4.33535973 22.63985044 0.76953125 23.6015625 C-5.31683794 24.45544137 -5.31683794 24.45544137 -9 22 C-9 21.01 -9 20.02 -9 19 C-5.59437148 18.22157062 -2.49234244 17.90021879 1 18 C1.33 16.68 1.66 15.36 2 14 C1.10796875 14.13019531 0.2159375 14.26039062 -0.703125 14.39453125 C-1.87359375 14.53246094 -3.0440625 14.67039062 -4.25 14.8125 C-5.41015625 14.96332031 -6.5703125 15.11414063 -7.765625 15.26953125 C-11 15 -11 15 -13.3828125 12.66796875 C-15 10 -15 10 -15.625 7.5 C-14.66207227 3.64828907 -12.1330794 2.25581717 -9 0 C-5.81926598 -1.59036701 -3.37573597 -0.78365299 0 0 Z " fill="#0E0E0E" transform="translate(80,31)"/>
<path d="M0 0 C1.32 0.66 2.64 1.32 4 2 C4 6.30533685 3.08700718 8.78248205 1.5 12.75 C1.0359375 13.92046875 0.571875 15.0909375 0.09375 16.296875 C-0.2671875 17.18890625 -0.628125 18.0809375 -1 19 C-0.03578125 18.39929688 0.9284375 17.79859375 1.921875 17.1796875 C3.19740892 16.41061558 4.47347893 15.64243231 5.75 14.875 C6.38421875 14.47667969 7.0184375 14.07835937 7.671875 13.66796875 C9.546875 12.5546875 9.546875 12.5546875 13 11 C15.453125 11.7578125 15.453125 11.7578125 17 13 C17 13.99 17 14.98 17 16 C13.76461674 17.9011219 10.50979987 19.76610586 7.25 21.625 C6.32960937 22.16640625 5.40921875 22.7078125 4.4609375 23.265625 C3.12675781 24.01972656 3.12675781 24.01972656 1.765625 24.7890625 C0.94868164 25.26037598 0.13173828 25.73168945 -0.70996094 26.21728516 C-3 27 -3 27 -5.23535156 26.38818359 C-7 25 -7 25 -7.83740234 23.1706543 C-8.03684802 20.50808442 -7.50618836 18.77958111 -6.6015625 16.26953125 C-6.28703125 15.38458984 -5.9725 14.49964844 -5.6484375 13.58789062 C-5.31070313 12.67201172 -4.97296875 11.75613281 -4.625 10.8125 C-4.295 9.88501953 -3.965 8.95753906 -3.625 8.00195312 C-1.16390179 1.16390179 -1.16390179 1.16390179 0 0 Z " fill="#0D0D0D" transform="translate(216,41)"/>
<path d="M0 0 C1.32 0.33 2.64 0.66 4 1 C3.29445932 4.66881155 1.72264494 7.70450534 0 11 C1.65 11.33 3.3 11.66 5 12 C6.32 10.02 7.64 8.04 9 6 C10.32 6.66 11.64 7.32 13 8 C11.80100302 11.0831351 10.52299523 14.06279492 9 17 C10.65 17.66 12.3 18.32 14 19 C14 23 14 23 13 25 C9.10800612 23.18112849 5.50214899 20.91346926 1.875 18.625 C1.24207031 18.23828125 0.60914063 17.8515625 -0.04296875 17.453125 C-3.68467781 15.14902882 -5.01324904 13.97350191 -7 10 C-3.535 5.05 -3.535 5.05 0 0 Z " fill="#0C0C0C" transform="translate(26,71)"/>
<path d="M0 0 C2.375 1.625 2.375 1.625 4 4 C4.60605429 7.63632575 4.47161336 9.28314769 2.4375 12.375 C-0.8994213 14.5996142 -3.06905293 14.50030235 -7 14 C-8.9375 13 -8.9375 13 -10 11 C-10.45982357 8.24105859 -10.51068558 5.75425931 -10 3 C-7.21052771 -0.43319666 -4.246332 -0.61925675 0 0 Z " fill="#F9F9F9" transform="translate(192,32)"/>
<path d="M0 0 C0.33 0 0.66 0 1 0 C2.6797325 10.3227197 2.04312714 17.31300473 -4 26 C-8.30011996 31.28845399 -12.92305567 34.96152783 -19 38 C-19.495 36.515 -19.495 36.515 -20 35 C-18.4840625 34.2265625 -18.4840625 34.2265625 -16.9375 33.4375 C-10.06248856 29.47114724 -4.30924089 23.71681001 -2 16 C-1.02058717 10.70685968 -0.49405074 5.35655015 0 0 Z " fill="#E6E6E6" transform="translate(169,201)"/>
<path d="M0 0 C0 3 0 3 -1.21484375 4.61328125 C-7.21097977 10.52783719 -15.09999122 18 -24 18 C-23 15 -23 15 -20.62890625 13.67578125 C-19.61699219 13.22589844 -18.60507813 12.77601563 -17.5625 12.3125 C-10.97191366 9.17487636 -5.17733546 5.17733546 0 0 Z " fill="#E4E4E4" transform="translate(158,245)"/>
<path d="M0 0 C0.66 0.33 1.32 0.66 2 1 C-14.60326087 13.25815217 -14.60326087 13.25815217 -24 14 C-24 13.01 -24 12.02 -24 11 C-23.02160156 10.62488281 -22.04320313 10.24976563 -21.03515625 9.86328125 C-14.284434 7.23862249 -7.81045159 4.63050985 -1.63671875 0.78515625 C-1.09660156 0.52605469 -0.55648437 0.26695312 0 0 Z " fill="#E1E1E1" transform="translate(149,244)"/>
<path d="M0 0 C0.33 0 0.66 0 1 0 C1.07476562 0.67804688 1.14953125 1.35609375 1.2265625 2.0546875 C2.35262859 10.02546905 4.60916871 17.33954182 10.99609375 22.6640625 C14.46332443 24.90563696 18.08999361 26.6559353 22 28 C19.18948744 29.18906301 18.08818153 29.03331302 15.1875 27.9375 C8.22448253 23.70507762 4.42068155 19.77427879 1.04296875 12.26953125 C-0.02001494 9.80034252 -0.02001494 9.80034252 -2 7 C-2 6.01 -2 5.02 -2 4 C-1.34 4 -0.68 4 0 4 C0 2.68 0 1.36 0 0 Z " fill="#D1D1D1" transform="translate(135,135)"/>
<path d="M0 0 C21.06324525 4.9296957 21.06324525 4.9296957 29 10 C28.01 10.495 28.01 10.495 27 11 C25.12101439 10.31454605 23.27122842 9.5486702 21.4375 8.75 C13.48540733 5.54955015 5.44813496 4.24445581 -3 3 C-2.01 2.67 -1.02 2.34 0 2 C0 1.34 0 0.68 0 0 Z " fill="#D4D4D4" transform="translate(124,183)"/>
<path d="M0 0 C4.83734115 1.16595106 9.51946661 2.69388273 14.234375 4.27734375 C15.19214844 4.58994141 16.14992188 4.90253906 17.13671875 5.22460938 C18.05066406 5.52947266 18.96460938 5.83433594 19.90625 6.1484375 C21.15293457 6.56307251 21.15293457 6.56307251 22.42480469 6.98608398 C24.484375 7.83984375 24.484375 7.83984375 26.484375 9.83984375 C22.30598085 9.20185827 18.28841118 8.32114073 14.2109375 7.2109375 C13.05722656 6.89833984 11.90351562 6.58574219 10.71484375 6.26367188 C9.52503906 5.93818359 8.33523437 5.61269531 7.109375 5.27734375 C5.89636719 4.94798828 4.68335937 4.61863281 3.43359375 4.27929688 C0.44980448 3.46873995 -2.53322827 2.6555067 -5.515625 1.83984375 C-2.515625 -0.16015625 -2.515625 -0.16015625 0 0 Z " fill="#ADADAD" transform="translate(109.515625,170.16015625)"/>
<path d="M0 0 C8.02985781 1.50559834 14.34901011 3.17477204 21 8 C18.10660711 8 16.70621868 7.61947146 14.0625 6.625 C8.49483951 4.68642514 2.81960412 3.8369989 -3 3 C-2.01 2.67 -1.02 2.34 0 2 C0 1.34 0 0.68 0 0 Z " fill="#D2D2D2" transform="translate(135,192)"/>
<path d="M0 0 C0.66 0 1.32 0 2 0 C0.52202738 3.67056937 -1.47615477 5.41085783 -4.625 7.75 C-5.44226563 8.36359375 -6.25953125 8.9771875 -7.1015625 9.609375 C-7.72804687 10.06828125 -8.35453125 10.5271875 -9 11 C-9.66 10.01 -10.32 9.02 -11 8 C-9.9275 7.4225 -8.855 6.845 -7.75 6.25 C-4.68129069 4.51416443 -2.45275029 2.5435929 0 0 Z " fill="#DCDCDC" transform="translate(160,228)"/>
<path d="M0 0 C-2.57817463 5.15634926 -9.86697011 8.92234504 -15 11 C-15.66 10.67 -16.32 10.34 -17 10 C-16.39671875 9.61328125 -15.7934375 9.2265625 -15.171875 8.828125 C-10.1475895 5.58019958 -10.1475895 5.58019958 -5.6875 1.625 C-4 0 -4 0 0 0 Z " fill="#CFCFCF" transform="translate(186,102)"/>
<path d="M0 0 C0.33 0.66 0.66 1.32 1 2 C1.66 2.33 2.32 2.66 3 3 C2.04901734 4.98270912 1.08899297 6.96108379 0.125 8.9375 C-0.40867188 10.03964844 -0.94234375 11.14179688 -1.4921875 12.27734375 C-3 15 -3 15 -5 16 C-4.5978125 14.824375 -4.5978125 14.824375 -4.1875 13.625 C-2.70766479 9.10760831 -1.35097726 4.55729662 0 0 Z " fill="#3B3B3B" transform="translate(181,220)"/>
<path d="M0 0 C-1.98 2.97 -1.98 2.97 -4 6 C-5.37562854 4.71034824 -6.70766393 3.37310707 -8 2 C-8 1.34 -8 0.68 -8 0 C-4.94736336 -0.98120464 -3.05263664 -0.98120464 0 0 Z " fill="#ECECEC" transform="translate(243,80)"/>
<path d="M0 0 C1.98 0.66 3.96 1.32 6 2 C6 2.99 6 3.98 6 5 C4.02 5.99 4.02 5.99 2 7 C0.5393715 4.35261084 0 3.10551666 0 0 Z " fill="#EDEDED" transform="translate(49,58)"/>
<path d="M0 0 C-0.68707031 0.33773437 -1.37414062 0.67546875 -2.08203125 1.0234375 C-2.98308594 1.46945313 -3.88414062 1.91546875 -4.8125 2.375 C-6.15248047 3.03628906 -6.15248047 3.03628906 -7.51953125 3.7109375 C-10.14556381 5.01866905 -10.14556381 5.01866905 -13 7 C-13.66 6.34 -14.32 5.68 -15 5 C-13.06891037 3.96709159 -11.129882 2.94901328 -9.1875 1.9375 C-8.10855469 1.36902344 -7.02960938 0.80054687 -5.91796875 0.21484375 C-3 -1 -3 -1 0 0 Z " fill="#C2C2C2" transform="translate(153,119)"/>
<path d="M0 0 C0.99 0.33 1.98 0.66 3 1 C3 5.95 3 10.9 3 16 C2.67 16 2.34 16 2 16 C1.34 10.72 0.68 5.44 0 0 Z " fill="#F0F0F0" transform="translate(168,195)"/>
<path d="M0 0 C0.33 0 0.66 0 1 0 C1.22127098 2.29045368 1.4266504 4.58244764 1.625 6.875 C1.74101562 8.15117187 1.85703125 9.42734375 1.9765625 10.7421875 C1.98429688 11.81726563 1.99203125 12.89234375 2 14 C1.34 14.66 0.68 15.32 0 16 C-1.16306443 12.45049966 -0.92365049 9.44176052 -0.5625 5.75 C-0.46066406 4.67234375 -0.35882813 3.5946875 -0.25390625 2.484375 C-0.17011719 1.66453125 -0.08632812 0.8446875 0 0 Z " fill="#A5A5A5" transform="translate(169,201)"/>
<path d="M0 0 C1.35015859 4.05047576 0.62084998 6.7920168 0 11 C-0.99 11 -1.98 11 -3 11 C-2.53199289 6.94393835 -2.12046792 3.53411321 0 0 Z " fill="#353535" transform="translate(70,112)"/>
<path d="M0 0 C-2.39509338 2.89932357 -4.31245243 3.50168276 -8 4 C-7 1 -7 1 -5.125 -0.25 C-3 -1 -3 -1 0 0 Z " fill="#E6E6E6" transform="translate(142,259)"/>
<path d="M0 0 C0 3 0 3 -1.53125 4.82421875 C-2.1809375 5.43910156 -2.830625 6.05398437 -3.5 6.6875 C-4.1496875 7.31011719 -4.799375 7.93273437 -5.46875 8.57421875 C-5.9740625 9.04472656 -6.479375 9.51523438 -7 10 C-7.33 9.01 -7.66 8.02 -8 7 C-5.36 4.69 -2.72 2.38 0 0 Z " fill="#C1C1C1" transform="translate(158,245)"/>
<path d="M0 0 C4.85077588 1.11940982 7.777893 2.1334716 11 6 C9.3501725 5.57781184 7.70516335 5.13675575 6.0625 4.6875 C5.14597656 4.44386719 4.22945312 4.20023438 3.28515625 3.94921875 C2.53105469 3.63597656 1.77695313 3.32273438 1 3 C0.67 2.01 0.34 1.02 0 0 Z " fill="#D9D9D9" transform="translate(146,200)"/>
<path d="M0 0 C1.65 0.33 3.3 0.66 5 1 C5.33 1.99 5.66 2.98 6 4 C3.03 3.67 0.06 3.34 -3 3 C-2.01 2.67 -1.02 2.34 0 2 C0 1.34 0 0.68 0 0 Z " fill="#CACACA" transform="translate(135,192)"/>
<path d="M0 0 C2.97 0.495 2.97 0.495 6 1 C6 1.99 6 2.98 6 4 C3.03 3.67 0.06 3.34 -3 3 C-2.01 2.67 -1.02 2.34 0 2 C0 1.34 0 0.68 0 0 Z " fill="#C4C4C4" transform="translate(124,183)"/>
<path d="M0 0 C0.66 0.66 1.32 1.32 2 2 C-5.42857143 2.28571429 -5.42857143 2.28571429 -9 0 C-5.47955362 -1.17348213 -3.57539179 -0.83679382 0 0 Z " fill="#DCDCDC" transform="translate(113,171)"/>
<path d="M0 0 C0.59296875 0.21527344 1.1859375 0.43054688 1.796875 0.65234375 C0.51163239 1.51614634 -0.78154919 2.36814744 -2.078125 3.21484375 C-2.79742187 3.69050781 -3.51671875 4.16617188 -4.2578125 4.65625 C-4.89976562 4.98496094 -5.54171875 5.31367187 -6.203125 5.65234375 C-6.863125 5.32234375 -7.523125 4.99234375 -8.203125 4.65234375 C-2.74543269 -0.43323317 -2.74543269 -0.43323317 0 0 Z " fill="#D7D7D7" transform="translate(182.203125,111.34765625)"/>
<path d="M0 0 C0.66 0.33 1.32 0.66 2 1 C-2.455 3.97 -2.455 3.97 -7 7 C-7.66 6.34 -8.32 5.68 -9 5 C-7.54735962 4.1361871 -6.0876837 3.28419546 -4.625 2.4375 C-3.40683594 1.72400391 -3.40683594 1.72400391 -2.1640625 0.99609375 C-1.44992188 0.66738281 -0.73578125 0.33867187 0 0 Z " fill="#DADADA" transform="translate(149,244)"/>
</svg>
