<?xml version="1.0" standalone="no"?>
<!DOCTYPE svg PUBLIC "-//W3C//DTD SVG 20010904//EN"
 "http://www.w3.org/TR/2001/REC-SVG-20010904/DTD/svg10.dtd">
<svg version="1.0" xmlns="http://www.w3.org/2000/svg"
 width="255.000000pt" height="262.000000pt" viewBox="0 0 255.000000 262.000000"
 preserveAspectRatio="xMidYMid meet">
<metadata>
Created by potrace 1.16, written by Peter Selinger 2001-2019
</metadata>
<g transform="translate(0.000000,262.000000) scale(0.100000,-0.100000)"
fill="#000000" stroke="none">
<path d="M670 2117 c-79 -23 -159 -67 -190 -105 -17 -20 -50 -75 -73 -122 -39
-80 -41 -90 -40 -170 1 -91 21 -167 44 -163 8 1 27 -21 42 -49 16 -28 32 -47
35 -42 8 11 28 11 59 0 41 -14 41 3 -2 48 -36 37 -45 55 -60 121 -10 48 -15
94 -11 119 16 96 76 181 166 234 40 24 55 27 140 27 114 -1 160 -19 243 -95
99 -90 129 -220 78 -337 -25 -55 -89 -123 -119 -124 -14 0 -14 -2 3 -8 11 -5
29 -4 40 2 10 5 28 11 40 12 11 1 23 3 26 4 4 0 19 19 34 41 15 22 30 38 33
35 6 -6 -23 -52 -56 -87 l-25 -27 -161 0 c-208 -1 -457 -17 -521 -33 l-50 -13
90 -5 90 -5 6 -140 c4 -77 7 -148 8 -157 1 -14 7 -12 30 13 26 26 30 28 39 14
8 -16 10 -15 26 0 15 15 16 30 10 109 -4 50 -8 98 -10 106 -1 8 -3 19 -3 23
-1 5 -5 5 -11 2 -5 -3 -10 -1 -10 4 0 6 -3 10 -7 10 -22 -4 -36 2 -28 10 6 4
124 6 263 3 l252 -5 1 -226 c1 -206 13 -475 18 -391 1 35 16 69 25 59 4 -4 9
-231 5 -254 -1 -5 -1 -13 0 -17 0 -5 -5 -8 -12 -8 -9 0 -9 -2 0 -8 6 -4 13
-30 16 -57 3 -44 4 -42 5 18 2 62 4 68 27 77 19 7 25 17 25 39 0 15 7 35 16
42 14 11 21 7 51 -29 28 -34 41 -42 69 -42 l34 0 -51 66 -52 65 42 43 c22 23
41 45 41 49 0 4 -12 7 -27 7 -19 0 -42 -14 -75 -47 l-48 -47 0 47 c0 31 -4 47
-12 47 -10 0 -13 57 -15 246 -1 242 -8 296 -37 316 -6 4 87 8 207 8 l217 0 0
-69 c0 -75 -10 -95 -28 -56 -18 39 -67 58 -135 52 -67 -6 -111 -35 -161 -105
-65 -92 -25 -226 86 -283 41 -21 108 -25 141 -8 12 6 39 27 60 47 l37 36 0
-92 c0 -91 0 -92 -25 -92 l-25 0 0 -114 0 -114 53 -4 c71 -6 152 23 172 62 31
60 6 135 -54 160 -23 9 -29 16 -21 25 13 16 13 488 0 480 -6 -3 -10 5 -10 19
0 20 -5 26 -22 26 -13 0 -32 7 -42 15 -18 13 -2 15 142 15 158 0 162 -1 152
-19 -5 -11 -10 -41 -10 -66 0 -40 5 -52 33 -80 66 -66 126 -57 232 34 64 56
112 78 139 65 6 -3 0 4 -13 15 -26 23 -71 27 -104 9 -12 -6 -47 -33 -76 -60
-60 -52 -94 -61 -129 -30 -32 26 -33 81 -3 111 16 16 30 18 83 14 58 -4 62 -3
44 11 -11 9 -25 16 -32 16 -6 0 -14 10 -17 21 -5 17 -11 20 -28 16 -30 -8 -69
34 -69 73 0 43 39 83 79 82 18 0 42 -8 54 -16 12 -9 44 -32 71 -51 44 -32 95
-48 82 -26 -3 5 3 11 14 14 34 9 24 33 -14 34 -24 1 -50 14 -95 51 -69 55
-102 65 -158 46 -68 -24 -103 -93 -83 -164 6 -19 10 -38 10 -42 0 -9 -595 -10
-703 -1 l-78 6 22 23 c12 13 26 22 32 21 6 -1 24 22 40 51 21 39 30 71 34 125
14 191 -75 344 -252 431 -74 37 -88 40 -175 43 -57 2 -113 -2 -140 -10z m881
-928 c9 -15 12 -142 3 -174 -3 -11 -16 -25 -30 -32 -22 -10 -28 -9 -46 9 -16
16 -28 19 -55 15 -75 -13 -127 50 -99 118 16 37 51 65 83 65 12 0 24 4 27 9 9
14 107 6 117 -10z"/>
<path d="M794 1832 c-6 -4 -13 -15 -17 -24 -6 -17 -16 -19 -84 -23 -13 0 -29
-7 -35 -14 -11 -11 -2 -13 50 -7 56 5 62 4 62 -13 0 -24 -19 -31 -85 -31 -86
0 -76 -19 11 -22 51 -2 79 -7 82 -15 2 -9 -7 -13 -26 -13 -43 0 -92 -11 -92
-21 0 -5 69 -9 153 -9 141 0 150 1 123 15 -15 8 -50 15 -77 15 -47 0 -62 11
-38 26 6 4 53 7 103 6 50 0 81 2 69 5 -13 2 -23 8 -23 13 0 5 -33 10 -72 12
-56 2 -73 6 -73 17 0 12 13 14 59 12 45 -2 57 1 54 11 -3 8 -25 14 -60 16 -47
3 -56 6 -64 27 -5 15 -13 22 -20 17z"/>
<path d="M793 1335 c-43 -18 -52 -40 -43 -105 4 -30 5 -59 2 -64 -3 -5 0 -6 7
-2 6 4 26 9 43 11 41 6 43 10 19 34 -17 17 -19 25 -11 41 24 45 94 14 119 -53
9 -22 6 -37 -13 -80 -21 -47 -74 -107 -96 -107 -4 0 -28 11 -51 25 -112 63
-247 32 -265 -61 -7 -40 2 -87 16 -79 6 3 10 2 10 -4 0 -17 61 -44 100 -44 19
0 70 15 112 33 l77 32 38 -38 c59 -59 93 -108 119 -171 l23 -58 -1 40 c0 22
-4 45 -8 50 -4 6 -8 22 -8 37 0 15 -13 44 -32 67 -17 23 -28 41 -23 41 4 0 18
-15 31 -33 13 -17 29 -41 37 -52 14 -20 14 -20 15 1 0 26 -54 113 -88 140
l-27 22 51 54 c85 90 96 197 28 278 -49 58 -114 74 -181 45z"/>
<path d="M1824 796 c-33 -15 -44 -33 -44 -71 0 -29 16 -42 79 -61 81 -24 57
-68 -26 -45 -28 8 -39 7 -45 -2 -21 -33 2 -47 83 -47 58 0 99 29 99 69 0 36
-24 57 -83 72 -35 8 -47 16 -45 28 3 12 15 16 55 15 38 -1 53 2 58 14 3 8 2
19 -3 24 -16 16 -96 19 -128 4z"/>
</g>
</svg>
